# AST/ASF file generated using VICON BodyLanguage
# -----------------------------------------------
:version 1.10
:name VICON
:units
  mass 1.0
  length 0.45
  angle deg
:documentation
   .ast/.asf automatically generated from VICON data using
   VICON BodyBuilder and BodyLanguage model FoxedUp or BRILLIANT.MOD
:root
   order TX TY TZ RX RY RZ
   axis XYZ
   position 0 0 0  
   orientation 0 0 0 
:bonedata
  begin
     id 1 
     name lhipjoint
     direction 0.589753 -0.68606 0.426044 
     length 2.54082 
     axis 0 0 0  XYZ
  end
  begin
     id 2 
     name lfemur
     direction 0.34202 -0.939693 0  
     length 7.04539  
     axis 0 0 20  XYZ
    dof rx ry rz
    limits (-160.0 20.0)
           (-70.0 70.0)
           (-60.0 70.0)
  end
  begin
     id 3 
     name ltibia
     direction 0.34202 -0.939693 0   
     length 7.83772   
     axis 0 0 20   XYZ
    dof rx
    limits (-10.0 170.0)
  end
  begin
     id 4 
     name lfoot
     direction 0.0596604 -0.163915 0.984669   
     length 2.39542   
     axis -90 7.62852e-016 20   XYZ
    dof rx rz
    limits (-45.0 90.0)
           (-70.0 20.0)
  end
  begin
     id 5 
     name ltoes
     direction 1.53514e-011 -4.21954e-011 1   
     length 1.2047   
     axis -90 7.62852e-016 20   XYZ
    dof rx
    limits (-90.0 20.0)
  end
  begin
     id 6 
     name rhipjoint
     direction -0.580585 -0.69168 0.429534   
     length 2.52018  
     axis 0 0 0  XYZ 
  end
  begin
     id 7 
     name rfemur
     direction -0.34202 -0.939693 0   
     length 7.0101   
     axis 0 0 -20   XYZ
    dof rx ry rz
    limits (-160.0 20.0)
           (-70.0 70.0)
           (-70.0 60.0)
  end
  begin
     id 8 
     name rtibia
     direction -0.34202 -0.939693 0   
     length 7.70628   
     axis 0 0 -20   XYZ
    dof rx
    limits (-10.0 170.0)
 end
 begin
     id 9 
     name rfoot
     direction -0.0696237 -0.19129 0.979061   
     length 2.52466  
     axis -90 -7.62852e-016 -20   XYZ
    dof rx rz
    limits (-45.0 90.0)
           (-20.0 70.0)
  end
  begin
     id 10 
     name rtoes
     direction -1.53519e-011 -4.21793e-011 1   
     length 1.266   
     axis -90 -7.62852e-016 -20   XYZ
    dof rx
    limits (-90.0 20.0)
  end
  begin
     id 11 
     name lowerback
     direction 0.00381965 0.995707 -0.0924856   
     length 2.20825   
     axis 0 0 0   XYZ
    dof rx ry rz
    limits (-20.0 45.0)
           (-30.0 30.0)
           (-30.0 30.0)
  end
  begin
     id 12 
     name upperback
     direction -0.0139043 0.999634 -0.0231929   
     length 2.21517   
     axis 0 0 0   XYZ
    dof rx ry rz
    limits (-20.0 45.0)
           (-30.0 30.0)
           (-30.0 30.0)
  end
  begin
     id 13 
     name thorax
     direction -0.0143933 0.999691 0.0202892   
     length 2.22911   
     axis 0 0 0   XYZ
    dof rx ry rz
    limits (-20.0 45.0)
           (-30.0 30.0)
           (-30.0 30.0)
  end
  begin
     id 14 
     name lowerneck
     direction -0.0251153 0.981819 0.188153   
     length 1.61782   
     axis 0 0 0   XYZ
    dof rx ry rz
    limits (-20.0 45.0)
           (-30.0 30.0)
           (-30.0 30.0)
  end
  begin
     id 15 
     name upperneck
     direction 0.0563891 0.969357 -0.239095   
     length 1.64526   
     axis 0 0 0   XYZ
    dof rx ry rz
    limits (-20.0 45.0)
           (-30.0 30.0)
           (-30.0 30.0)
  end
  begin
     id 16
     name head
     direction 0.0208328 0.99459 -0.101773  
     length 1.67436  
     axis 0 0 0   XYZ
    dof rx ry rz
    limits (-20.0 45.0)
           (-30.0 30.0)
           (-30.0 30.0)
  end
  begin
     id 17 
     name lclavicle
     direction 0.917689 0.397224 0.00772059  
     length 3.31102  
     axis 0 0 0   XYZ
    dof ry rz
    limits (-20.0 10.0)
           (0.0 20.0)
  end
  begin
     id 18 
     name lhumerus
     direction 1 -4.4896e-011 2.32308e-027   
     length 5.25537   
     axis 180 -30 -90   XYZ
    dof rx ry rz
    limits (-60.0 90.0)
           (-90.0 90.0)
           (-90.0 90.0)
  end
  begin
     id 19
     name lradius
     direction 1 -4.49005e-011 -2.04271e-027   
     length 3.38855   
     axis 180 -30 -90   XYZ
    dof rx
    limits (-10.0 170.0)
  end
  begin
     id 20
     name lwrist
     direction 1 -4.48892e-011 2.56952e-028   
     length 1.69428   
     axis -5.12785e-016 90 90   XYZ
    dof ry
    limits (-180.0 0.0)
 end
  begin
     id 21 
     name lhand
     direction 1 -4.48966e-011 5.13905e-028   
     length 0.614516   
     axis -3.27915e-016 90 90   XYZ
    dof rx rz
    limits (-90.0 90.0)
           (-45.0 45.0)
  end
  begin
     id 22 
     name lfingers
     direction 1 -4.48979e-011 1.02781e-027   
     length 0.495439   
     axis -6.5583e-016 90 90   XYZ
    dof rx
    limits (0.0 90.0)
  end
  begin
     id 23
     name lthumb
     direction 0.707107 -6.35001e-011 0.707107   
     length 0.711354   
     axis -90 45 2.85299e-015   XYZ
    dof rx rz
    limits (-45.0 45.0)
           (-45.0 45.0)
  end
  begin
     id 24 
     name rclavicle
     direction -0.938556 0.342765 -0.0403177   
     length 3.27019  
     axis 0 0 0   XYZ 
    dof ry rz
    limits (-10.0 20.0)
           (-20.0 0.0)
  end
  begin
     id 25 
     name rhumerus
     direction -1 -4.48966e-011 2.52291e-027  
     length 5.38183   
     axis 180 30 90   XYZ
    dof rx ry rz
    limits (-90.0 60.0)
           (-90.0 90.0)
           (-90.0 90.0)
  end
  begin
     id 26 
     name rradius
     direction -1 -4.4896e-011 1.5797e-027   
     length 3.16988   
     axis 180 30 90   XYZ
    dof rx
    limits (-10.0 170.0)
  end
  begin
     id 27 
     name rwrist
     direction -1 -4.48947e-011 2.56952e-028   
     length 1.58494   
     axis -5.12785e-016 -90 -90   XYZ
    dof ry
    limits (-180.0 0.0)
  end
  begin
     id 28
     name rhand
     direction -1 -4.49098e-011 5.13905e-028   
     length 0.637679   
     axis -3.27915e-016 -90 -90   XYZ
    dof rx rz
    limits (-90.0 90.0)
           (-45.0 45.0)
  end
  begin
     id 29
     name rfingers
     direction -1 -4.49026e-011 1.02781e-027   
     length 0.514113   
     axis -6.5583e-016 -90 -90   XYZ
    dof rx
    limits (0.0 90.0)
  end
  begin
     id 30
     name rthumb
     direction -0.707107 -6.3491e-011 0.707107   
     length 0.738167   
     axis -90 -45 -2.85299e-015   XYZ
    dof rx rz
    limits (-45.0 45.0)
           (-45.0 45.0)
  end
:hierarchy
  begin
    root lhipjoint rhipjoint lowerback
    lhipjoint lfemur
    lfemur ltibia
    ltibia lfoot
    lfoot ltoes
    rhipjoint rfemur
    rfemur rtibia
    rtibia rfoot
    rfoot rtoes
    lowerback upperback
    upperback thorax
    thorax lowerneck lclavicle rclavicle
    lowerneck upperneck
    upperneck head
    lclavicle lhumerus
    lhumerus lradius
    lradius lwrist
    lwrist lhand lthumb
    lhand lfingers
    rclavicle rhumerus
    rhumerus rradius
    rradius rwrist
    rwrist rhand rthumb
    rhand rfingers
  end

#!OML:ASF H:\Swim\Project 1\Capture day 1\Session 1\swimmer.ASF
:FULLY-SPECIFIED
:DEGREES
2137
root 6.0791 11.5921 21.3694 87.2145 -1.49234 -8.82684
lowerback 5.62909 -2.92441 0.0548513
upperback -5.62499 -4.42357 -4.75838
thorax -9.54363 -2.38627 -4.49247
lowerneck -13.0216 1.65187 -4.1154
upperneck 2.872 1.50471 23.9839
head 2.91803 1.68514 8.34575
rclavicle 3.49861e-014 -1.35174e-014
rhumerus 415.288 -21.485 357.289
rradius 57.1875
rwrist -27.2195
rhand -0.837398 -1.98039
rfingers 7.12502
rthumb 24.7881 -390.394
lclavicle 3.49861e-014 -1.35174e-014
lhumerus 4.92623 -61.3036 7.82276
lradius 91.2265
lwrist 7.50165
lhand -10.581 -706.47
lfingers 7.12502
lthumb 15.4241 42.9341
rfemur -21.081 -1.22689 24.2013
rtibia 39.3439
rfoot 1.82379 -5.85749
rtoes -0.807288
lfemur -19.0681 -9.13182 -20.7573
ltibia 34.0573
lfoot -7.75322 17.073
ltoes 2.1011
2138
root 6.04791 11.5934 21.3653 87.2062 -1.24552 -8.40551
lowerback 5.73997 -2.8258 0.715212
upperback -5.6698 -4.26153 -5.10294
thorax -9.73253 -2.37215 -5.26108
lowerneck -13.0589 1.33001 -4.10749
upperneck 2.79782 1.05367 24.2101
head 2.97459 1.46868 8.39795
rclavicle 1.59028e-014 -2.38542e-015
rhumerus 417.747 -21.1326 355.51
rradius 53.5134
rwrist -26.2923
rhand -1.33097 -2.22646
rfingers 7.12502
rthumb 24.3149 -390.704
lclavicle 1.59028e-014 -2.38542e-015
lhumerus 3.87536 -61.4591 7.91016
lradius 92.8571
lwrist 7.68012
lhand -9.90207 -706.642
lfingers 7.12502
lthumb 16.078 42.7112
rfemur -20.7863 -1.34963 24.2679
rtibia 39.1578
rfoot 2.53493 -6.13607
rtoes 0.00518524
lfemur -19.2574 -8.83218 -20.6212
ltibia 34.1957
lfoot -7.29259 16.4115
ltoes 1.21446
2139
root 6.0158 11.5952 21.3609 87.2249 -1.00681 -7.99484
lowerback 5.84209 -2.71461 1.38806
upperback -5.72589 -4.08123 -5.45971
thorax -9.92538 -2.35384 -6.06092
lowerneck -13.1178 0.963871 -4.18169
upperneck 2.73919 0.545541 24.5225
head 3.05023 1.22843 8.49188
rclavicle -4.45278e-014 0
rhumerus 419.982 -20.7913 353.615
rradius 50.0943
rwrist -25.4649
rhand -1.87239 -2.51305
rfingers 7.12502
rthumb 23.7958 -391.059
lclavicle -4.45278e-014 0
lhumerus 2.78207 -61.4414 8.02665
lradius 94.4937
lwrist 7.73671
lhand -9.10602 -706.773
lfingers 7.12502
lthumb 16.8444 42.5163
rfemur -20.5505 -1.33791 24.3327
rtibia 38.9252
rfoot 3.01728 -6.47758
rtoes 0.288997
lfemur -19.4276 -8.39234 -20.5078
ltibia 34.3522
lfoot -6.64478 15.5981
ltoes 0.321603
2140
root 5.98313 11.5975 21.3563 87.2745 -0.77558 -7.60304
lowerback 5.93162 -2.58606 2.06692
upperback -5.7877 -3.87594 -5.82565
thorax -10.1108 -2.32735 -6.88733
lowerneck -13.2257 0.553638 -4.30044
upperneck 2.70938 -0.0276 24.8775
head 3.15615 0.962244 8.60584
rclavicle 1.59028e-014 1.23246e-014
rhumerus 421.987 -20.4959 351.616
rradius 46.9338
rwrist -24.6596
rhand -2.42312 -2.75967
rfingers 7.12502
rthumb 23.2675 -391.374
lclavicle 1.59028e-014 1.23246e-014
lhumerus 1.6722 -61.2519 8.14324
lradius 96.1068
lwrist 7.54758
lhand -8.30241 -706.913
lfingers 7.12502
lthumb 17.6178 42.3086
rfemur -20.3841 -1.17072 24.3965
rtibia 38.6581
rfoot 3.22467 -6.88764
rtoes 0.0769476
lfemur -19.5833 -7.84715 -20.4131
ltibia 34.5294
lfoot -5.85923 14.666
ltoes -0.464148
2141
root 5.95023 11.6005 21.3514 87.3518 -0.544037 -7.23398
lowerback 6.011 -2.44186 2.74705
upperback -5.84796 -3.64643 -6.18462
thorax -10.2788 -2.29134 -7.7202
lowerneck -13.3525 0.112768 -4.44513
upperneck 2.67982 -0.639633 25.2023
head 3.27444 0.677155 8.71039
rclavicle -1.11319e-014 2.0276e-014
rhumerus 423.789 -20.2671 349.535
rradius 44.0235
rwrist -23.7483
rhand -2.98162 -2.90761
rfingers 7.12502
rthumb 22.7316 -391.589
lclavicle -1.11319e-014 2.0276e-014
lhumerus 0.533592 -60.8751 8.28188
lradius 97.7117
lwrist 7.29711
lhand -7.47661 -707.066
lfingers 7.12502
lthumb 18.4124 42.0825
rfemur -20.2924 -0.890927 24.4671
rtibia 38.3717
rfoot 3.22682 -7.30939
rtoes -0.259261
lfemur -19.7194 -7.23467 -20.3259
ltibia 34.7257
lfoot -4.99822 13.6499
ltoes -1.12049
